<svg width="269" height="157" viewBox="0 0 269 157" fill="none" xmlns="http://www.w3.org/2000/svg">
<mask id="mask0" mask-type="alpha" maskUnits="userSpaceOnUse" x="0" y="0" width="269" height="157">
<rect width="269" height="157" fill="black"/>
</mask>
<g mask="url(#mask0)">
<path d="M199.19 40.613L133.976 78.5954L199.19 116.567L264.415 78.5954L199.19 40.613Z" fill="#F2F2F3"/>
<path opacity="0.16" d="M183.026 69.2899L177.02 82.1543H177.18L193.178 91.4811L215.309 87.9969H215.384L221.358 75.1325L205.296 65.72L183.026 69.2899ZM206.965 75.9687L205.583 79.2705L201.384 79.8494L198.429 80.3211L203.744 83.4408L202.203 87.4609L191.477 81.2109L192.54 78.1127L199.981 76.8799L194.666 73.7495L196.26 69.7723L201.862 72.9884L206.965 75.9687Z" fill="black"/>
<path d="M68.7477 40.613L3.52255 78.5954L68.7477 116.567L133.973 78.5954L68.7477 40.613Z" fill="#F2F2F3"/>
<path opacity="0.16" fill-rule="evenodd" clip-rule="evenodd" d="M69.1399 72.9883L56.8624 74.9072L65.7809 80.0959L78.0159 78.177L69.1399 72.9883ZM82.4486 70.4476L73.4238 65.1946L70.1392 72.3236L79.164 77.5766L82.4486 70.4476ZM42.8734 77.062L51.7813 82.2507L64.027 80.3425L55.151 75.1324L42.8734 77.062ZM79.3659 78.9381L67.1096 80.8034L76.0175 85.9921L88.2632 84.0839L79.3659 78.9381Z" fill="black"/>
<path d="M133.971 2.64124L68.7455 40.6128L133.971 78.5952L199.185 40.6128L133.971 2.64124Z" fill="#F2F2F3"/>
<path opacity="0.16" d="M109.064 41.6634L149.128 49.4786L135.809 26.0974L109.064 41.6634ZM129.335 36.1102L130.887 35.2097L132.439 36.1102L130.887 37.0108L129.335 36.1102ZM132.45 41.524L130.898 42.4246L129.356 41.524L130.898 40.6128L132.45 41.524ZM130.122 40.1626L128.58 41.0631L127.029 40.1626L128.58 39.262L130.122 40.1626ZM127.805 38.8118L126.253 39.7123L124.701 38.8118L126.253 37.9113L127.805 38.8118ZM137.106 41.524L135.554 42.4246L134.002 41.524L135.554 40.6128L137.106 41.524ZM134.778 40.1626L133.226 41.0631L131.674 40.1626L133.226 39.262L134.778 40.1626ZM132.45 38.8118L130.887 39.7552L129.346 38.8547L130.887 37.9542L132.45 38.8118ZM130.122 37.461L128.58 38.3615L127.029 37.461L128.58 36.5498L130.122 37.461ZM131.663 37.461L133.215 36.5605L134.767 37.461L133.215 38.3723L131.663 37.461ZM135.554 39.7123L134.002 38.8118L135.554 37.9113L137.106 38.8118L135.554 39.7123Z" fill="black"/>
<g style="mix-blend-mode:multiply">
<path d="M133.971 78.5947L68.7455 116.566L133.971 154.549L199.185 116.566L133.971 78.5947Z" fill="#DBDBDC"/>
</g>
<path d="M133.971 60.5663L68.7455 98.5379L133.971 136.52L199.185 98.5379L133.971 60.5663Z" fill="url(#paint0_linear)"/>
<path d="M148.155 105.803C140.331 110.348 127.618 110.348 119.805 105.803C111.992 101.257 111.981 93.8389 119.805 89.2934C123.901 87.061 128.479 85.8792 133.135 85.8522V85.8522L133.305 89.8509C130.286 89.8804 127.321 90.6494 124.663 92.0914C119.528 95.0824 119.528 99.9495 124.663 102.94C129.797 105.931 138.152 105.931 143.286 102.94C145.603 101.59 146.964 99.8101 147.124 97.9019L154.001 97.9984C153.788 100.968 151.716 103.723 148.155 105.803Z" fill="white"/>
<path d="M152.468 95.03C152.107 95.2145 151.708 95.3107 151.304 95.3107C150.899 95.3107 150.501 95.2145 150.14 95.03C150.002 94.9797 149.883 94.8879 149.799 94.7671C149.715 94.6462 149.67 94.5022 149.67 94.3546C149.67 94.207 149.715 94.0629 149.799 93.9421C149.883 93.8212 150.002 93.7294 150.14 93.6792C150.501 93.4946 150.899 93.3984 151.304 93.3984C151.708 93.3984 152.107 93.4946 152.468 93.6792C152.605 93.7294 152.724 93.8212 152.808 93.9421C152.893 94.0629 152.938 94.207 152.938 94.3546C152.938 94.5022 152.893 94.6462 152.808 94.7671C152.724 94.8879 152.605 94.9797 152.468 95.03V95.03Z" fill="white"/>
<path d="M136.95 99.3821C135.999 99.8681 134.949 100.121 133.883 100.121C132.817 100.121 131.767 99.8681 130.816 99.3821C129.126 98.3958 129.126 96.7985 130.816 95.8122C131.767 95.3262 132.817 95.073 133.883 95.073C134.949 95.073 135.999 95.3262 136.95 95.8122C138.65 96.7985 138.65 98.3958 136.95 99.3821Z" fill="white"/>
<path d="M149.832 91.9423C149.471 92.1269 149.073 92.2231 148.668 92.2231C148.264 92.2231 147.865 92.1269 147.504 91.9423C147.367 91.8921 147.248 91.8003 147.164 91.6794C147.079 91.5586 147.034 91.4146 147.034 91.2669C147.034 91.1193 147.079 90.9753 147.164 90.8544C147.248 90.7336 147.367 90.6418 147.504 90.5916C147.865 90.407 148.264 90.3108 148.668 90.3108C149.073 90.3108 149.471 90.407 149.832 90.5916C149.97 90.6418 150.089 90.7336 150.173 90.8544C150.257 90.9753 150.302 91.1193 150.302 91.2669C150.302 91.4146 150.257 91.5586 150.173 91.6794C150.089 91.8003 149.97 91.8921 149.832 91.9423V91.9423Z" fill="white"/>
<path d="M146.24 93.8721C145.882 94.0574 145.485 94.1541 145.082 94.1541C144.679 94.1541 144.282 94.0574 143.923 93.8721C143.785 93.8219 143.666 93.7301 143.582 93.6092C143.498 93.4884 143.453 93.3444 143.453 93.1967C143.453 93.0491 143.498 92.9051 143.582 92.7842C143.666 92.6634 143.785 92.5716 143.923 92.5214C144.282 92.336 144.679 92.2394 145.082 92.2394C145.485 92.2394 145.882 92.336 146.24 92.5214C146.383 92.5663 146.508 92.6561 146.596 92.7776C146.685 92.8991 146.733 93.0459 146.733 93.1967C146.733 93.3476 146.685 93.4944 146.596 93.6159C146.508 93.7374 146.383 93.8272 146.24 93.8721Z" fill="white"/>
<path d="M145.923 89.67C145.565 89.8553 145.168 89.952 144.765 89.952C144.362 89.952 143.965 89.8553 143.606 89.67C143.468 89.6197 143.349 89.5279 143.265 89.4071C143.181 89.2863 143.136 89.1422 143.136 88.9946C143.136 88.847 143.181 88.7029 143.265 88.5821C143.349 88.4612 143.468 88.3695 143.606 88.3192C143.965 88.1339 144.362 88.0372 144.765 88.0372C145.168 88.0372 145.565 88.1339 145.923 88.3192C146.572 88.6837 146.572 89.2948 145.923 89.67Z" fill="white"/>
<path d="M142.582 91.7599C142.22 91.9396 141.821 92.0331 141.418 92.0331C141.014 92.0331 140.616 91.9396 140.254 91.7599C140.112 91.7119 139.99 91.6204 139.903 91.4983C139.816 91.3762 139.769 91.2296 139.769 91.0792C139.769 90.9288 139.816 90.7822 139.903 90.6601C139.99 90.5379 140.112 90.4464 140.254 90.3984C140.616 90.2187 141.014 90.1252 141.418 90.1252C141.821 90.1252 142.22 90.2187 142.582 90.3984C142.723 90.4464 142.846 90.5379 142.933 90.6601C143.02 90.7822 143.067 90.9288 143.067 91.0792C143.067 91.2296 143.02 91.3762 142.933 91.4983C142.846 91.6204 142.723 91.7119 142.582 91.7599V91.7599Z" fill="white"/>
<path d="M140.751 88.1254C140.39 88.31 139.992 88.4062 139.587 88.4062C139.183 88.4062 138.784 88.31 138.423 88.1254C138.285 88.0752 138.166 87.9834 138.082 87.8626C137.998 87.7417 137.953 87.5977 137.953 87.4501C137.953 87.3024 137.998 87.1584 138.082 87.0375C138.166 86.9167 138.285 86.8249 138.423 86.7747C138.784 86.5901 139.183 86.4939 139.587 86.4939C139.992 86.4939 140.39 86.5901 140.751 86.7747C140.889 86.8249 141.008 86.9167 141.092 87.0375C141.176 87.1584 141.221 87.3024 141.221 87.4501C141.221 87.5977 141.176 87.7417 141.092 87.8626C141.008 87.9834 140.889 88.0752 140.751 88.1254Z" fill="white"/>
</g>
<defs>
<linearGradient id="paint0_linear" x1="76.3671" y1="77.3973" x2="191.79" y2="119.05" gradientUnits="userSpaceOnUse">
<stop stop-color="#ED3E72"/>
<stop offset="1" stop-color="#9E177E" stop-opacity="0.8"/>
</linearGradient>
</defs>
</svg>
